<svg width="32" height="32" viewBox="0 0 32 32" fill="none" xmlns="http://www.w3.org/2000/svg">
  <rect width="32" height="32" rx="6" fill="#1e293b"/>
  
  <!-- Full Moon -->
  <circle cx="16" cy="16" r="6" fill="#fbbf24"/>
  
  <!-- Moon craters -->
  <circle cx="14" cy="15" r="0.7" fill="#1e293b"/>
  <circle cx="17" cy="16" r="0.5" fill="#1e293b"/>
  <circle cx="15.5" cy="17.5" r="0.4" fill="#1e293b"/>
  
  <!-- Stars -->
  <g fill="#ffffff">
    <!-- Large star -->
    <path d="M8 7L8.5 8.5L10 8.5L8.8 9.5L9.3 11L8 10L6.7 11L7.2 9.5L6 8.5L7.5 8.5Z"/>
    <!-- Medium stars -->
    <path d="M24 6L24.3 7L25.3 7L24.5 7.5L24.8 8.5L24 8L23.2 8.5L23.5 7.5L22.7 7L23.7 7Z"/>
    <path d="M26 12L26.3 13L27.3 13L26.5 13.5L26.8 14.5L26 14L25.2 14.5L25.5 13.5L24.7 13L25.7 13Z"/>
    <!-- Small stars -->
    <circle cx="10" cy="12" r="0.4"/>
    <circle cx="22" cy="9" r="0.4"/>
    <circle cx="25" cy="18" r="0.3"/>
    <circle cx="5" cy="14" r="0.3"/>
    <circle cx="27" cy="21" r="0.4"/>
    <circle cx="7" cy="25" r="0.3"/>
    <circle cx="23" cy="24" r="0.4"/>
  </g>
</svg>
